<svg width="58" height="58" viewBox="0 0 58 58" fill="none" xmlns="http://www.w3.org/2000/svg">
<g clip-path="url(#clip0_1_1224)">
<path d="M15.3906 67.8438H-3.30078C-4.2392 67.8438 -5 67.083 -5 66.1445V45.7539C-5 44.8155 -4.2392 44.0547 -3.30078 44.0547H15.3906C16.329 44.0547 17.0898 44.8155 17.0898 45.7539V66.1445C17.0898 67.083 16.329 67.8438 15.3906 67.8438Z" fill="#FB9333"/>
<path d="M15.3906 44.0547H5.19531V67.8438H15.3906C16.329 67.8438 17.0898 67.083 17.0898 66.1445V45.7539C17.0898 44.8155 16.329 44.0547 15.3906 44.0547Z" fill="#FB9333"/>
<path d="M47.3542 23.4961L42.8046 21.6836L37.8019 23.4961L36.3593 35.7586C36.3026 36.2405 36.4547 36.7236 36.7771 37.0862C37.0995 37.4488 37.5617 37.6562 38.0468 37.6562H47.1093C47.5945 37.6562 48.0566 37.4488 48.3791 37.0862C48.7016 36.7236 48.8535 36.2405 48.7969 35.7586L47.3542 23.4961Z" fill="#FB9333"/>
<path d="M48.7966 35.7586L47.3539 23.4961L42.8043 21.6836L42.5778 21.7657V37.6562H47.109C47.5942 37.6562 48.0563 37.4488 48.3788 37.0862C48.7013 36.7236 48.8532 36.2403 48.7966 35.7586Z" fill="#FB9333"/>
<path d="M19.3671 35.7586C19.3105 36.2405 19.4625 36.7236 19.7849 37.0862C20.1073 37.4488 20.5695 37.6562 21.0546 37.6562H30.1171C30.6023 37.6562 31.0644 37.4488 31.3869 37.0862C31.7094 36.7236 31.8613 36.2405 31.8047 35.7586L30.3621 23.4961L25.6992 20.7773L20.8097 23.4961L19.3671 35.7586Z" fill="#FB9333"/>
<path d="M31.8044 35.7586L30.3617 23.4961L25.6989 20.7773L25.5856 20.8403V37.6562H30.1168C30.602 37.6562 31.0641 37.4488 31.3866 37.0862C31.7091 36.7236 31.861 36.2403 31.8044 35.7586Z" fill="#FB9333"/>
<path d="M46.5314 16.5008C46.4308 15.6449 45.7055 15 44.8438 15H40.3126C39.451 15 38.7256 15.6449 38.625 16.5008L37.8021 23.4961H47.3545L46.5314 16.5008Z" fill="#FFAC37"/>
<path d="M46.5309 16.5008C46.4303 15.6449 45.705 15 44.8434 15H42.5778V23.4961H47.3539L46.5309 16.5008Z" fill="#FFAC37"/>
<path d="M27.8517 15H23.3204C22.4588 15 21.7335 15.6449 21.6329 16.5008L20.8099 23.4961H30.3623L29.5393 16.5008C29.4386 15.6449 28.7133 15 27.8517 15Z" fill="#FFAC37"/>
<path d="M29.5387 16.5008C29.4382 15.6449 28.7128 15 27.8512 15H25.5856V23.4961H30.3617L29.5387 16.5008Z" fill="#FFAC37"/>
<path d="M1.79688 57.6484C0.858453 57.6484 0.0976562 56.8876 0.0976562 55.9492V52.5508C0.0976562 51.6124 0.858453 50.8516 1.79688 50.8516C2.7353 50.8516 3.49609 51.6124 3.49609 52.5508V55.9492C3.49609 56.8876 2.7353 57.6484 1.79688 57.6484Z" fill="#FFF8EE"/>
<path d="M8.59375 57.6484C7.65533 57.6484 6.89453 56.8876 6.89453 55.9492V52.5508C6.89453 51.6124 7.65533 50.8516 8.59375 50.8516C9.53217 50.8516 10.293 51.6124 10.293 52.5508V55.9492C10.293 56.8876 9.53217 57.6484 8.59375 57.6484Z" fill="white"/>
<path d="M39.1797 67.8438H51.0742C52.0126 67.8438 52.7734 67.083 52.7734 66.1445V38.957C52.7734 38.0186 52.0126 37.2578 51.0742 37.2578H17.0898C16.1514 37.2578 15.3906 38.0186 15.3906 38.957V67.8438H28.9844L33.8555 66.9375L39.1797 67.8438Z" fill="#FFAC37"/>
<path d="M51.0742 37.2578H34.082V66.976L39.1797 67.8438H51.0742C52.0126 67.8438 52.7734 67.083 52.7734 66.1445V38.957C52.7734 38.0186 52.0126 37.2578 51.0742 37.2578Z" fill="#FFAC37"/>
<path d="M23.8867 61.0469C22.9483 61.0469 22.1875 60.2861 22.1875 59.3477V55.9492C22.1875 55.0108 22.9483 54.25 23.8867 54.25C24.8251 54.25 25.5859 55.0108 25.5859 55.9492V59.3477C25.5859 60.2861 24.8251 61.0469 23.8867 61.0469Z" fill="#FFF8EE"/>
<path d="M23.8867 50.8516C22.9483 50.8516 22.1875 50.0908 22.1875 49.1523V45.7539C22.1875 44.8155 22.9483 44.0547 23.8867 44.0547C24.8251 44.0547 25.5859 44.8155 25.5859 45.7539V49.1523C25.5859 50.0908 24.8251 50.8516 23.8867 50.8516Z" fill="#FFF8EE"/>
<path d="M44.2773 61.0469C43.3389 61.0469 42.5781 60.2861 42.5781 59.3477V55.9492C42.5781 55.0108 43.3389 54.25 44.2773 54.25C45.2158 54.25 45.9766 55.0108 45.9766 55.9492V59.3477C45.9766 60.2861 45.2158 61.0469 44.2773 61.0469Z" fill="white"/>
<path d="M44.2773 50.8516C43.3389 50.8516 42.5781 50.0908 42.5781 49.1523V45.7539C42.5781 44.8155 43.3389 44.0547 44.2773 44.0547C45.2158 44.0547 45.9766 44.8155 45.9766 45.7539V49.1523C45.9766 50.0908 45.2158 50.8516 44.2773 50.8516Z" fill="white"/>
<path d="M30.6836 50.8516C29.7452 50.8516 28.9844 50.0908 28.9844 49.1523V45.7539C28.9844 44.8155 29.7452 44.0547 30.6836 44.0547C31.622 44.0547 32.3828 44.8155 32.3828 45.7539V49.1523C32.3828 50.0908 31.622 50.8516 30.6836 50.8516Z" fill="#FFF8EE"/>
<path d="M37.4805 50.8516C36.542 50.8516 35.7812 50.0908 35.7812 49.1523V45.7539C35.7812 44.8155 36.542 44.0547 37.4805 44.0547C38.4189 44.0547 39.1797 44.8155 39.1797 45.7539V49.1523C39.1797 50.0908 38.4189 50.8516 37.4805 50.8516Z" fill="white"/>
<path d="M37.4805 54.25H30.6836C29.7452 54.25 28.9844 55.0108 28.9844 55.9492V67.8438H32.3828L33.9688 66.7109L35.7812 67.8438H39.1797V55.9492C39.1797 55.0108 38.4189 54.25 37.4805 54.25Z" fill="#FFF8EE"/>
<path d="M37.4805 54.25H34.082V66.7817L35.7812 67.8438H39.1797V55.9492C39.1797 55.0108 38.4189 54.25 37.4805 54.25Z" fill="white"/>
<path d="M32.3828 57.6484H35.7812V67.8438H32.3828V57.6484Z" fill="#FFAC37"/>
<path d="M34.082 57.6484H35.7812V67.8438H34.082V57.6484Z" fill="#FFAC37"/>
</g>
<defs>
<clipPath id="clip0_1_1224">
<rect width="58" height="58" fill="white"/>
</clipPath>
</defs>
</svg>
